# xmcd
#
# Track frame offsets: 
#        150
#        25038
#        45880
#        75669
#        102342
#        123630
#        146477
#        172055
#        196188
#        222247
#        247912
#
# Disc length: 3687 seconds
#
# Revision: 0
# Processed by: cddbd v1.5.2PL0 Copyright (c) Steve Scherf et al.
# Submitted via: ExactAudioCopy v1.0b3
#
DISCID=8d0e650b
DTITLE=Manh Quynh - Dam Me
DYEAR=1998
DGENRE=
TTITLE0=Mot thuo dam me
TTITLE1=Chuyen tau hoang hon
TTITLE2=Nguoi giau cung khoc
TTITLE3=Nguoi em nam cu
TTITLE4=Mai
TTITLE5=Xe thu tinh
TTITLE6=Tinh chet theo mua dong
TTITLE7=Thuyen xa ben do
TTITLE8=Dem voi minh
TTITLE9=Nghen ngao
TTITLE10=Coi long toi
EXTD=
EXTT0=
EXTT1=
EXTT2=
EXTT3=
EXTT4=
EXTT5=
EXTT6=
EXTT7=
EXTT8=
EXTT9=
EXTT10=
PLAYORDER=
